<svg xmlns="http://www.w3.org/2000/svg" viewBox="0 0 241.44 241.56"><defs><style>.cls-1{fill:#cd1141;}.cls-2{fill:#fff;}.cls-3{fill:#a0a0a3;}</style></defs><title>Artboard 1</title><g id="Red-Bkgd"><path class="cls-1" d="M241.44,120.84A120.72,120.72,0,1,1,120.72,0,120.72,120.72,0,0,1,241.44,120.84Z"/></g><g id="Black-Bkgd"><path d="M120.72,235.2a114.48,114.48,0,0,1-1.32-229h1.32a114.48,114.48,0,0,1,1.2,229Z"/></g><g id="Raptors"><polygon class="cls-2" points="201 149.76 198 155.4 195.84 154.32 195.24 155.4 193.44 159 193.92 160.56 196.92 162.24 196.56 162 198.12 161.52 201.72 154.8 207.24 153.12 216.36 157.8 217.92 163.2 212.76 173.16 207.36 174.84 202.8 172.44 205.8 166.8 208.08 168 210.6 163.32 210 161.64 207.6 160.44 205.92 160.92 202.56 167.52 196.92 169.2 187.8 164.52 186 159 191.16 149.04 196.68 147.48 201 149.76"/><path class="cls-2" d="M42.72,158.4l2.4,4.56a9.88,9.88,0,0,0,1.68.6l3.6-1.92.48-1.68-2.4-4.56Zm3.6,12.12-4.8-1L34,178.44l-3-5.64,7-8.28-1.44-2.76-8.88,4.56L25,161.16,51.6,147.24l6.6,12.48-1.8,5.52Z"/><path class="cls-2" d="M88,201.6l4.2,1.8,1.56-.72,1.68-3.84-.6-1.56-4.32-1.8Zm-2.28,5.28-4.32,10.44-5.28-2.16L87.6,187.32l12.72,5.28,2.16,5.4-4.2,10.2-4.2,2.16Z"/><polygon class="cls-2" points="131.4 201.72 125.88 201.84 126.12 225.36 119.76 225.48 119.52 201.84 114.12 201.96 114 195.36 131.28 195.24 131.4 201.72"/><path class="cls-2" d="M148.56,197.4l-.72,1.56L153,212.64l1.56.6,3.84-1.44.72-1.56L154,196.56l-1.56-.6Zm17.76,14.16-2.16,5.16-10.44,4-5.16-2.28-7.92-20.76,2.28-5.16,10.44-4,5.16,2.28Z"/><path class="cls-2" d="M177.48,188.64l4-3.48.12-1.56-2.64-3.24-1.56-.12-4,3.36Zm10.92-6.24.12,4.92L199,192.84,194,196.92l-9.6-4.92-2.28,2,6.36,7.56-4.32,3.84-19.56-23,10.68-9,5.88.48Z"/><path class="cls-2" d="M61,192.84l4.2-8.28-8,4.8Zm-.12,14.28-4.68-4.32,2.16-4.44-6.48-6L47.52,195l-4.68-4.44,27.24-16.32,4.68,4.32Z"/></g><g id="Toronto"><path class="cls-2" d="M120.36,22.56l-1.2,1.2V38.4l1.2,1.2h4l1.2-1.2V23.76l-1.2-1.2ZM132,42.24l-4.08,4H116.76l-4-4V20l4-4h11.16l4,4v22.2Z"/><path class="cls-2" d="M209.16,75.36l-1.56-.48-13.08,6.36-.6,1.56,1.68,3.6,1.56.6,13.2-6.36.6-1.56Zm-12.6,19-5.28-1.92-4.8-10L188.4,77l19.92-9.48,5.28,1.8,4.8,10.08-1.8,5.4Z"/><path class="cls-2" d="M50.64,53.64v1.68L61.2,65.52h1.68l2.88-2.88v-1.8L55.32,50.64h-1.8Zm22.08,5.28.12,5.64-7.8,8H59.4L43.56,57.24l-.12-5.64,7.8-8L57,43.44Z"/><polygon class="cls-2" points="172.92 28.8 161.28 56.52 156.36 54.48 155.16 34.8 148.32 51 143.04 48.84 154.8 21.12 161.28 23.88 161.4 41.16 167.52 26.52 172.92 28.8"/><path class="cls-2" d="M83.28,37.92,88,35.76a8.67,8.67,0,0,0,.6-1.56L87,30.48l-1.68-.6L80.64,32Zm12.24-2.76L94.2,39.84,102.6,48l-5.88,2.64-7.8-7.56L86.16,44.4l4,9.12-5.4,2.28-12-27.6,13-5.64,5.52,2.28Z"/><polygon class="cls-2" points="196.56 55.8 192.6 51.96 176.04 68.76 171.6 64.44 188.16 47.52 184.2 43.68 188.76 39 201.12 51.24 196.56 55.8"/><polygon class="cls-2" points="36 72.96 33.72 78 55.32 87.6 52.8 93.36 31.2 83.76 28.92 88.8 22.92 86.04 30.12 70.32 36 72.96"/></g><g id="Ball"><path class="cls-3" d="M144.12,181.32l.24.24a7.87,7.87,0,0,0,1-.12l.72-.24,1.92-.84,4.68-2.16.84-.48.48-.24.48-.36.84-.48,1-.6,1.32-.84,2.16-1.56,1.2-.84,1.56-1.08,1.44-1.08.6-.48,1.08-1,1-1,1.56-1.68,1.8-1.8,2.16-2.52,1.2-1.56.36-.48,1.32-1.56,2.4-3.6.72-1.08,1.68-3.24.84-1.68,1.56-3.24.84-2,1-3s1.08-4,1.68-6c.12-.12.12-.36-.12-.6a9.38,9.38,0,0,1-.84-1.56,4.67,4.67,0,0,0-.48-.84c-.24-.24-.6-.72-.84-1s-.36-.36-.6-.6c-.48-.36-1-1-1.32-1.2s-.36-.24-.6-.36a15,15,0,0,0-4.2-2.52,13,13,0,0,0-1.92-.72,8.25,8.25,0,0,0-1.68-.48.57.57,0,0,0-.72.12c-.12.12-.12.36-.12.72a17.76,17.76,0,0,0-.24,2.52,17.76,17.76,0,0,0-.24,2.52c-.12.84-.12,1.56-.24,2.4a25.31,25.31,0,0,1-.48,3c-.36,1.92-.72,3.84-1.08,5.64a6,6,0,0,1-.36,1.56,20,20,0,0,0-.84,2.4,35.66,35.66,0,0,1-1.56,5.16,15.66,15.66,0,0,1-1.8,4.08c0,.12,0,.12-.12.36-.36.84-.72,1.68-1.08,2.64-.24.48-.6,1-.84,1.56a11.61,11.61,0,0,1-1.2,2c-.6,1.08-1.32,2-1.92,3.12a11.86,11.86,0,0,1-1.32,2c-.12.24-.24.36-.36.6a8.29,8.29,0,0,1-1.2,1.68c-.84,1.08-1.68,2.16-2.52,3.12L153,174l-1.56,1.56c-.12.24-.24.24-.36.36a3.22,3.22,0,0,0-1,.84,10.66,10.66,0,0,1-2.16,1.8,5.9,5.9,0,0,0-1,.84A11.87,11.87,0,0,1,144.12,181.32Z"/><path class="cls-3" d="M186.48,130.68l.12-.12v-.48l.48-4.08.24-3.84v-4.44L187,113.4s-.6-4-1-6c-.12-.72-.6-1-1.2-1.32-.24-.12-.36-.24-.6-.24a6.13,6.13,0,0,1-1.32-.48c-1-.12-1.92-.6-2.88-.72-1.2-.24-2.4-.24-3.6-.48-1,0-1.92-.12-2.88-.12h-2c-.48,0-.84,0-1.08.36s0,.72,0,1.2c.12,1,.36,1.44.48,2.28a64.11,64.11,0,0,1,1.08,8.4c0,1.32.12,2.52.12,3.84v1q0,.3.12.6a2.28,2.28,0,0,0,.6.36,2.18,2.18,0,0,1,.72.12,4,4,0,0,1,1,.24c1.08.36,2.28.72,3.48,1.2a18.13,18.13,0,0,1,2.16,1.08.37.37,0,0,0,.24.12c.48.36,1,.72,1.32,1a15,15,0,0,1,2.88,2.64.94.94,0,0,0,.48.48c.36.36.84,1.32,1.2,1.68C186.36,130.56,186.36,130.68,186.48,130.68Z"/><path class="cls-3" d="M157.44,84.36h1.08c.24,0,.48,0,.48-.36s0-.36-.12-.6S158,82,158,82l-.72-1.2-3.12-4.32-.6-.84-.6-.84-1-1.08L149.52,71l-1-1.08-3.84-3.6L141.6,64l-1.2-.6-3.6-2.16-2.64-1.44-.48-.24-2.16-.72-3.12-1.2-.24-.12-1-.24L126,57l-1.8-.36h-1l-1.68-.36-1.92-.12-.72-.12h-1.2l-2.16.12-2,.24H112l-1.44.12-1.32.24-1.2.36-1.8.36h-.36l-1.68.6-1,.36-.6.36-1.44.36-.6.36-.84.48-2.16,1L94.8,62,94,62.4,92,63.48l-1.68,1.08-1.56.84-.6.24-1.68,1-.36.12-1.92,1.44-1.56,1.08-.36.24-1.8,1.44-.6.48a7.26,7.26,0,0,0-1,1l.6-.12,1.32-.48h.24l1.8-.72h.24l1.92-.84L86.16,70l1-.36,1.44-.6,3.6-1.32h.24l1.8-.6,1.44-.6.24.12,2.76.12,1.8.12h.12l3.48.36,4.92.24v.12l1.8,1.44h.12l1.8,1.8.12-.12,2.52.12.12-.12,6.12.36v.12l2.76,1.68h.12l4.8,2.28v.24L132,74.28l4.08,1.32.72,1.2h1.44l1.44,1.56h.12l1.2,1.32v.12h.12l3.12.72,1.2,1.8,2.88,1.08a39.2,39.2,0,0,0,4.8,1A17.35,17.35,0,0,0,157.44,84.36Z"/><path class="cls-3" d="M184.8,103c-.12-.36-.48-1.32-.48-1.32l-.12-.6-.24-.6-.48-1.56L183,97.56l-1.56-3.36-.72-1.68L180,90.6,178.92,89l-1-1.8-.6-1.08L177,85.8l-4.32-6-.72-.72a.26.26,0,0,0-.24-.24S170.4,81,169.8,81.72,168,83.4,168,83.4s-1,.72-1.08.84a9.6,9.6,0,0,1-1,.6l-1,.6a6.24,6.24,0,0,1-.84.36c-.24.12-.36.12-.36.24s-.12.12-.12.36.12.24.12.36A26.07,26.07,0,0,0,165,89.4a22.23,22.23,0,0,1,1.68,3.84,12.5,12.5,0,0,1,.48,1.2c.36,1.2.84,2.28,1.08,3.36.12.6.36,1,.48,1.56s.24,1.08.36,1.44.24.6.72.48h1c1.2,0,2.28-.12,3.48-.12.36,0,2.76.24,2.76.24s.72.12,1.2.24c1,.12,1.8.36,2.76.48a16.09,16.09,0,0,1,2.16.72l1.08.36a1.09,1.09,0,0,1,.36.12C184.8,103.2,184.8,103.08,184.8,103Z"/><path class="cls-3" d="M169.32,76.8a2.28,2.28,0,0,0-.36-.6l-.24-.36-.6-.84-.36-.6-.84-.72a1.41,1.41,0,0,0-.36-.24c-1.44-1.08-4.2-3.36-4.2-3.36l-.72-.6-1.44-1.32L153,63.84l-5.76-2.64L144.12,60,143,59.64l-3.72-1.32-2.64-.72-2.52-.48h-.36l-.24.24s.24.24.36.24c.84.24,1.68.6,2.4.84s1.08.48,1.68.72a1.48,1.48,0,0,1,1,.48c1.2.6,2.4,1.32,3.72,2a12.82,12.82,0,0,1,2,1.56l1.44,1.08a3.19,3.19,0,0,1,.72.6c.12.12.24.24.36.24.72.6,1.56,1.2,2.16,1.8a17.38,17.38,0,0,0,2,2.16c.72.72,1.32,1.32,1.92,2a22.36,22.36,0,0,0,1.56,1.8c1.08,1.08,1.8,2.28,2.88,3.36.12.12.12.24.24.48A24,24,0,0,0,160,79.68a12.11,12.11,0,0,1,1.44,2,6.77,6.77,0,0,0,.72,1.32c.24.12.48.36.6.36a.88.88,0,0,0,.48-.24l.48-.12a7,7,0,0,0,.84-.48,1.91,1.91,0,0,0,.84-.48,6.93,6.93,0,0,0,1.2-1c.36-.36,1.2-1.32,1.2-1.32l.6-.72,1-1.68C169.2,77.4,169.44,77,169.32,76.8Z"/><path class="cls-3" d="M166.32,101c-.36-1.2-.6-2.4-1.08-3.6a29.31,29.31,0,0,0-1.08-2.88c-.24-.6-.36-1.2-.6-1.8-.12-.36-.24-.6-.36-1a22.63,22.63,0,0,0-2-4.2.37.37,0,0,0-.12-.24c-.12-.12-.12-.24-.24-.36s-.36,0-.72,0c-.6,0-1.44.12-1.68.12s-1.56.12-2.52.12h-1.44l-3.12-.48c-1.2-.12-3.72-.72-3.72-.72l-2-.72-2.4-.84-.12.12-3.72-.36-.12.12-2-1.56h-.24l-1.32-1.2v-.24l-1.44-.24-.24.12-1.2-.48-.12-.12-2.64.24-2.52-1-8.52.48-.12-.12-1.68.12-.12.24-4.2.24-.12-.12-6,3.48-.12.24-.24.24-.12-.12-3-.24H97.56L96,84.24,95.52,84,90,88.32v.12L88.08,90l-2.16-1.08L85.8,89,85,88.8s-4.08,1-4,1l-3.84-.6L76.92,89l-.6.72-1.56.72v.12l-3,2.4-4.32,3-4.8,3.6-2.16,1.56-.12,1-.84,2-.36,1.8-.6,3.72-.36,1.56L58,113.16l-.48,4-.24,8.64.24.48.12,2.4s0,.48.12.48L68.4,118.2l3.36-1.44,3-.12,1.8-2,.12-.36h.24l4.8-.48.24-.12h2l.6-.72,2.16-1.32,2.4-1.56h6.36l.12.12,2.52.24,2-.36,3.6-3.6,2.88-2.76,4.32-.48.12-.24.24.24,2.16,1,.24-.12,1.92-.24h.12l1.8-.36h.12l2,1.68.12-.12,4.08-.12.36-.24,3.36.12.12.12.6-.12v-.12l1.32-.6H130l1.44-.72.12-.12,1.68-.6.12-.24,4.68-1.8.84-.24.12-.12.24.24,1.32.6H141l1.44.84.12-.12.36-.24H143l.72-.36V101l1.08-.24,2.76.72.6-.12.48.24,2,.36,1.92.72,1.08-.12.48.24.24-.12s3.84-.48,5.76-.6l3.72-.36c.72-.12,1.44-.12,2.16-.24C166.32,101.64,166.56,101.4,166.32,101Z"/><path class="cls-3" d="M169.2,120.72c0-.36-.12-.48-.12-.72a13,13,0,0,1-.12-2.16c0-.24-.12-.6-.12-.84a21.24,21.24,0,0,1-.12-2.76c-.12-1.2-.36-2.28-.48-3.48a19.75,19.75,0,0,0-.48-2.64,21.53,21.53,0,0,0-.48-2.76c-.24-1-.36-1-1.32-1-.12,0-.24,0-.24.12a4,4,0,0,1-1.2.12c-1.92.24-3.72.36-5.52.6l-5.4,1.92-7.8-.24-.84-.36v.24l-2.4,1.68h-.24l-1.8,1.68-.12.24-4.68.6-4.2,3.36H131l-2.28,1.32-.84.12-1,.72-.24-.12L122.4,116l-.72.84V117L118,121.2l-.12.24h-.12l-4.8,5.4H111.6l-.12.12-4,.72h-.36v.24l-6.6,3.6-2.88-.36-.6.24-2.88-.24-2.88,3.12-1.8.36h-1l-1,.36H87v.12l-3.6,2.76-.48.12-5.52,4.32v.24L73.92,151l.24.36-5.76.48-1.8,1.68-.24.6L69,157.56l1.8,2.88,1.68,2.16,2.64,2.76v.24c.12,0,.48,0,.48.12l1.56.48,1.92.6a.12.12,0,0,0,.11.12h.13l3.24,1.32h.24l.12.12h.36l.72.6,1.32-.72h.12l.6-.48L91,169l3.6-1.8,7.92-.72,3.24-5.28,1.44-1.44h.24l1.08-1.08v-.12l2-1.92,1-1,.24-.12,1.08-1.08,1-1,.24-.12-.24-.72.84-3.48,1.8-.48.12-.12.48-.12v-.24l2.4-4h.24l1-2,1.68-.84.24-.36.24.12,1-.48h.12l1.68-.84.24-.24,5.76-2.64H132v-.36l.24-.12.6-2,1.92-.84,2-.12,1.92-1.44,2.88.24.24.12.12-.12,4-1.68V130l.84-1.8,1.92-.48.12-.12,2.52-.6,1.08-1.2h.12l.6-.6,1.8.24v.12l1.08.12.6.12s2.52-1.2,3.72-1.68a6.13,6.13,0,0,0,1.32-.48c.6-.24,1.2-.36,1.8-.6a2.66,2.66,0,0,0,1-.24l1.2-.24,1.32-.24,1-.12h.6a.79.79,0,0,0,.6-.24c.24-.12.12-.36.24-.48A2.18,2.18,0,0,1,169.2,120.72Z"/><path class="cls-3" d="M169.2,125.76A1,1,0,0,0,169,125a.88.88,0,0,0-.48-.24c-.12,0-.84.12-.84.12l-1.08.12c-.24,0-.24.12-.36.12a10.25,10.25,0,0,0-2,.48,9.14,9.14,0,0,0-2.16.72,15.19,15.19,0,0,0-2.4,1.08c-.24.12-2.76,1.32-3.84,1.92l-1.56,1.56v.24H153v.12l-3,1v.36l-.36.24v.24l-1.44,2.52H148v.24s-.24.36-.6,1l-6.24,4H141l-1.08.84-.6,2.64-.6.6L136.2,154l.36,1.08-3.6,1.68h-.6l-.72,3.12-.12.12-1,2.88.12.12-.36,2.4-.12.24.12.24-3.6,5.52h-.24l-.84,1.44V173l-3,4.2-3.12,1.92.12.24-.12,1.32.24.48-.36.12-2.28,1.32h-.24l-3.36,1.92-.36.6,1.2.24,2.16.12,1.56.12h5l4.68-.6,2.76-.6,2.16-.6,2.28-.6,2.88-1.2.24-.12.84-.48a32,32,0,0,0,3.36-2,59.29,59.29,0,0,0,5.28-4.2,20.68,20.68,0,0,0,1.56-1.68,19.14,19.14,0,0,0,1.56-1.56c.12-.12.24-.12.24-.36a6.42,6.42,0,0,1,.84-1,3.19,3.19,0,0,0,.6-.72,15,15,0,0,1,1.32-1.44,3.46,3.46,0,0,0,1.08-1.2,16.44,16.44,0,0,0,1.56-2.4,29.43,29.43,0,0,0,2.16-3.24c.6-1.2,1.2-2.4,1.92-3.6.6-1,1.08-2,1.56-3,.72-1.8,1.56-3.6,2.16-5.28A35.27,35.27,0,0,0,166,144a31,31,0,0,1,1.2-4.44,1.24,1.24,0,0,1,.12-.6c.24-1.2.36-2.4.6-3.6s.24-2.16.48-3.36a14.62,14.62,0,0,0,.36-2.28c0-1.08.12-2.16.12-3.24v-.36A.89.89,0,0,0,169.2,125.76Z"/></g></svg>